<?xml version="1.0" encoding="utf-8"?>
<!-- Generator: Adobe Illustrator 24.3.0, SVG Export Plug-In . SVG Version: 6.00 Build 0)  -->
<svg version="1.1" id="Layer_1" xmlns="http://www.w3.org/2000/svg" xmlns:xlink="http://www.w3.org/1999/xlink" x="0px" y="0px"
	 viewBox="0 0 66 66" style="enable-background:new 0 0 66 66;" xml:space="preserve">
<style type="text/css">
	.st0{clip-path:url(#SVGID_2_);fill:#A4BFBF;}
</style>
<g>
	<defs>
		<rect id="SVGID_1_" width="66" height="66"/>
	</defs>
	<clipPath id="SVGID_2_">
		<use xlink:href="#SVGID_1_"  style="overflow:visible;"/>
	</clipPath>
	<path class="st0" d="M33,66C14.8,66,0,51.2,0,33C0,14.8,14.8,0,33,0s33,14.8,33,33S51.2,66,33,66 M33,2.6C16.2,2.6,2.6,16.2,2.6,33
		S16.2,63.4,33,63.4S63.4,49.8,63.4,33S49.8,2.6,33,2.6"/>
	<path class="st0" d="M41.5,34.1H23.1c-0.7,0-1.3-0.6-1.3-1.3c0-0.7,0.6-1.3,1.3-1.3l18.4,0c0.7,0,1.3,0.6,1.3,1.3
		C42.8,33.5,42.2,34.1,41.5,34.1"/>
	<path class="st0" d="M35.2,42.4c-0.3,0-0.6-0.1-0.8-0.3c-0.5-0.4-0.6-1.3-0.2-1.8l6.1-7.5l-5.4-7c-0.4-0.6-0.3-1.4,0.2-1.8
		c0.6-0.4,1.4-0.3,1.8,0.2L43,32c0.4,0.5,0.4,1.1,0,1.6l-6.8,8.3C36,42.2,35.6,42.4,35.2,42.4z"/>
</g>
</svg>
