<?xml version="1.0" encoding="utf-8"?>
<!-- Generator: Adobe Illustrator 25.4.0, SVG Export Plug-In . SVG Version: 6.00 Build 0)  -->
<svg version="1.1" id="Layer_2" xmlns="http://www.w3.org/2000/svg" xmlns:xlink="http://www.w3.org/1999/xlink" x="0px" y="0px"
	 viewBox="0 0 92.4 92.4" style="enable-background:new 0 0 92.4 92.4;" xml:space="preserve">
<style type="text/css">
	.st0{clip-path:url(#SVGID_00000104693195701057947640000007342260371399056518_);}
	.st1{fill:#00892A;}
	.st2{fill-rule:evenodd;clip-rule:evenodd;fill:#EFEFEF;}
</style>
<g>
	<defs>
		<path id="SVGID_1_" d="M46.2,92.4C20.7,92.4,0,71.7,0,46.2C0,20.7,20.7,0,46.2,0c25.5,0,46.2,20.7,46.2,46.2
			C92.4,71.7,71.7,92.4,46.2,92.4L46.2,92.4z"/>
	</defs>
	<clipPath id="SVGID_00000155857921482390265040000003474620173392053684_">
		<use xlink:href="#SVGID_1_"  style="overflow:visible;"/>
	</clipPath>
	<g style="clip-path:url(#SVGID_00000155857921482390265040000003474620173392053684_);">
		<polygon class="st1" points="115.5,92.4 115.5,0 -23.1,0 -23.1,92.4 115.5,92.4 		"/>
		<g>
			<path class="st2" d="M40.9,38.9c0-0.4,0.4-0.7,0.8-0.6c1.3,0.2,1.6,0.2,2.7,0.3c1.6,0.2,0.7,0.6,0,1.1c-0.3,0.3-0.6,0.4-0.8,0.8
				c-0.1,0.2,0.1,1.1,0,1.2C42.6,42.8,40.9,39.8,40.9,38.9L40.9,38.9z M47.7,32.8c0-0.3,0.5-0.2,0.7-0.1
				C49.7,33.3,47.7,33.8,47.7,32.8L47.7,32.8z M37.1,31.7c0,0.2,0.4,1.2,0.5,1.4c0.6,1.7,1.9,4.4,1,6.1c-0.8,1.6-2.6,3.9-4.4,4.2
				c-0.7,0.1-2,0-1.8-1c0.1-0.3,1.3-0.9,1.5-1.1c1-0.7,1.9-1.7,2.4-2.8c0.6-1.3,0.7-2.3,0.3-3.7c-0.1-0.4-0.2-0.7-0.4-1
				c-0.1-0.2-0.2-0.1-0.2-0.3c0.6,0,1.3,0.7,0.6-0.8c-0.4-0.8-1.2-2.3-2.3-1.5c-0.1,0.1-0.2,0.2-0.3,0.3c-0.9,1.2,0.1,2.3,0.8,3.1
				c0.5,0.6,0.9,1.6,0.5,2.3c-0.2,0.5-0.7,0.9-1.1,1.2c-0.4,0.4-1.6,1.5-2.2,1.8c0-0.4,0-0.6,0.1-0.9c0-0.3,0.1-0.6,0.1-0.9
				c-0.7,0.2-1.2,1.9-1.3,2.5c-0.1,0.5-0.4,0.5-1,0.9c-1.8,1.2-2.8,1.6-4.9,3.2c-0.3,0.2-0.6,0.4-0.7,0.8c0.8,0.4,2.4-0.5,3.2-0.7
				l2.2-0.9c0.2-0.1,0.5-0.3,0.7-0.3c0.2,0.3,0.2,0.6,0.4,0.9c0.2,0.3,0.4,0.5,0.6,0.7c2,1.8,5,0,6.4-1.8c0.2-0.2,0.4-0.5,0.6-0.7
				c0.1-0.1,0.2-0.2,0.3-0.3c0.2-0.3,0.6-1,1-0.9c0.1,0.1,0.5,0.7,0.8,1.1l0.7,0.7c0.8,0.8,2,1.2,3.1,1.5c0.7,0.2,2,0.6,2.5,0.1
				c0.5-0.4,0.3-1.2-0.3-1.5c-1.1-0.5-2.6-1.4-1-2.4c0.3-0.2,1-0.2,1.4-0.3c1.4-0.2,2.8-0.4,4.1-0.8c0.2-0.1,0.4-0.1,0.7-0.2
				c0.3-0.1,0.3-0.1,0.4-0.5c0.1-0.6,0.3-1.3,0.7-1.8c0.1-0.2,0.3-0.3,0.4-0.5c-0.6-0.4-1-0.3-1.7-0.3l-5,0c-0.5,0-0.6,0.1-0.8-0.2
				c0.7-0.4,3.6-0.2,4.6-2.3c0.8-1.5,0.3-3.3-1.3-3.8c-0.8-0.3-1.3-0.1-2,0.4c-0.9,0.7-0.9,1.8-0.9,2.8c0,0.4,0,0.6-0.3,0.6
				c-1,0.2-0.7,0-2.2,0.5c-1,0.4-3,1.4-3.1,2.4c-0.2,0-0.3-0.1-0.3-0.2c-0.1-0.2-0.2-1.4-0.2-1.7c-0.1-0.8-0.3-1.3-0.5-2
				c-0.2-0.7-1-3-1.8-3.2C37.4,30.4,37.1,31,37.1,31.7L37.1,31.7z"/>
			<path class="st2" d="M67.2,68.7c-0.9,0-1.1,0-2-0.1c-0.4,0-0.3-0.5-0.2-0.9c0.5,0,0.9,0.1,1.5,0.1l2.4,0c0.3,0,0.5,0.1,0.8,0.1
				c0.3,0,0.5-0.1,0.6,0.2c0.1,0.2,0,0.4-0.1,0.6h-1.6c-0.1-0.5-0.8-0.4-1.1-0.3C67.3,68.5,67.2,68.5,67.2,68.7L67.2,68.7z
				 M71.5,70.4h-0.2c-0.3,0-0.5-0.2-0.9-0.7c-0.4,0.2-2.9,0.1-3.6,0.1c-0.7,0-0.9,0-1.7-0.1C65,69.9,65,70,64.8,70.1
				c-0.9,0.8-1.6-1.4-1.1-2.4c-7.8,0-15.6,0-23.5,0c-3.5,0-7.1,0-10.6,0.1c-2.8,0-5.8,0.3-8.2-1.6c-0.3-0.2-0.5-0.5-0.7-0.7
				c-0.1-0.1-0.2-0.3-0.3-0.4c0.5,0,0.8,0.1,1.4,0.1l2,0.1c1.2,0.1,2.1,0.1,3.3,0.1c0.3,0,0.4,0,0.6,0.1c0.2,0,0.5,0,0.7,0
				c11.8,0,23.6,0.2,35.4,0.2c-0.5-0.7-0.7-1.7,0.5-2c0.1,0.2,0.2,0.4,0.2,0.6c0.9,0,0.7,0.9,0.4,1.4l2.2,0.1c1.5,0,4.7-0.6,5.5,0.9
				c0.4,0.8,0.9,3.4-0.5,3.8C71.8,70.4,71.6,70.4,71.5,70.4L71.5,70.4z"/>
			<path class="st2" d="M70.7,25L70.7,25L70.7,25z M70.7,25c-0.2-0.1-0.3-0.2-0.4-0.4C70.2,24.4,70,24.3,70,24
				c0.2-0.1,0.3,0,0.5-0.2c0-0.4-0.6-0.9-0.9-1.2c-0.4-0.4-0.5-0.6-1.1-1l-0.6-0.5c-0.2-0.1,0-0.1-0.3-0.1c-0.2,0.4-0.3,2.1-0.2,2.6
				c0.2,0.9,1.7,2.5,2.3,3.4l1.2,1.6c0.4,0.5,0.3,0.3,0.3,1.1l0.2,3.3c0,0.4,0.2,3.1,0.2,3.4c0,0.4,0.1,0.9,0.1,1.4
				c0,0.8-0.2,1.7-0.4,2.4c-0.3,0.9-1,0.8-1.6,0.2C69.6,40,69,39,68.7,38.8c-1.6-1.1-2.9,3.7-3.5,4.6c-0.2,0.3-0.7,0.3-1.1,0.1
				c-0.6-0.4-0.8-1.2-1-1.9c-0.2-0.7-0.2-1.9-0.1-2.6c-0.4,0.3-0.7,1-0.8,1.5c-0.1,0.6-0.1,1.5,0,2.1c0.1,0.7,0.3,1.1,0.6,1.7
				c0.5,0.8,1.8,2.1,2.8,1.4c1.4-0.9,0.9-3,1.7-4c0.2-0.3,0.6-0.3,0.9-0.1c0.2,0.1,0.6,0.7,1.2,1.1c0.8,0.5,1.5,1,2.5,0.3
				c0.8-0.5,1.3-1,1.5-2c0.4-1.7,0.1-7.2,0.1-9c0.4,0.5,1.2,1.7,1.5,2.2c0.2,0.3,0.2,1.6,0.2,2c0,0.4,0.1,1,0.1,1.4
				c0,0.2,0,0.5,0,0.7c0,0.3,0.1,0.4,0.1,0.7c0,1,0,2,0,3c0.5-0.1,1.2-1.2,1.4-1.7c0.3-0.6,0.2-0.6,0.2-1.3c0-0.5,0-1,0-1.6
				c0.2,0.2,0.5,0.7,0.6,1l1.5,2.6c0.1,0.2,0.1,0.4,0.3,0.5C80.1,41,80,40,80,39.3c-0.1-0.9-0.3-1.2-0.8-1.9c-0.5-0.8-1-1.6-1.6-2.3
				c-0.7-0.9-0.6-0.7-0.7-2c0-0.4-0.1-0.8-0.1-1.2c-0.2-2-0.7-3.8-0.9-5.7c-0.1-0.7,0.1-0.3,0.7-0.7c0-1.1-1-3.3-1.5-4.2
				c-0.4-0.6-1.1,0.2-1.3,0.6c-0.9,1.5,0.6,5.3,0.9,6.9c0.1,0.7,0.3,1.4,0.3,2.1c-0.2-0.2-1-1.4-1.2-1.8c-0.6-0.9-0.8-1-0.8-2.2
				c0-0.2,0-0.3,0-0.4l-0.1-1.4c0.3,0,0.2,0.2,0.6,0.2c0.6-0.8-1.4-3.6-1.9-4.2c-0.4,0-0.5,0.2-0.7,0.5c-0.2,0.3-0.2,0.5-0.2,1
				C70.6,23.4,70.7,24.2,70.7,25L70.7,25z"/>
			<path class="st2" d="M21.6,34.8c0-1.9,2.1,0.4,0.7,0.3C21.9,35,21.6,35.1,21.6,34.8L21.6,34.8z M23.8,22.7c0,0.6,1.2,7.7,1.3,8.5
				c0.1,0.6,0.4,1.7,0.2,2c-0.5,1-1.2-0.4-1.7-0.7c-0.1-0.1-0.3-0.2-0.5-0.3c-2-0.8-4.1,3-2.6,4.4c0.7,0.6,1.7,0.6,2.4,0.1
				c0.2-0.1,0.5-0.4,0.7-0.4c0.5,0-0.5,1.7-0.5,1.8c-0.5,0.6-1.1,1.2-1.9,1.6c-0.8,0.4-2.1,0.9-3,0.5c-0.4-0.2-0.8-0.6-0.9-1
				c-0.2-0.9,0.2-2.6-0.6-3.2c-0.2,0.1-0.3,0.1-0.4,0.3c-0.1,0.2-0.1,0.4-0.2,0.5c-1.8,5.6,4.7,8,7.6,3.2c0.1-0.2,0.2-0.3,0.3-0.5
				c0.4-0.7,0.6-1.5,0.8-2.4c0.1-0.6,0.8-1.7,0.7-0.4c-0.1,0.9,0,1.2-0.4,2.3c-0.5,1.6-1.6,3.2-3.1,4c-1.6,0.8-5,1.5-6-0.7
				c-0.3-0.7-0.2-4.2-1.3-3.2c-0.8,0.8-0.5,3.7-0.1,4.6c1.8,4.2,8,1.8,10.3-0.5c0.2-0.2,0.3-0.3,0.5-0.5c0.9-1,1.3-2.3,1.5-3.6
				c0-0.3,0-3.5,0-3.5c0.1,0.1,0.3,0.2,0.4,0.3c0.8,0.5,1.8,0.1,2.3-0.4c0.8-0.8,1.8,0.6,2.9-0.3c0.3-0.3,0.4-0.5,0.5-1
				c0.1-0.8,0.3-1.7,0.3-2.6c-1.5,0.4-1.1,0.5-1.4,1.6c-0.8,0.4-1.2-2.2-2.2-0.2c-0.5,0.9-0.8,0.9-1.4,0.3c-0.5-0.5,0.2-1.4-1.3-0.7
				c0-0.4-0.5-4.3-0.6-5c0-0.2-0.2-1.6-0.2-1.7c1,0.1,0.7,0.1,1.1-0.2c0-0.2-0.2-0.6-0.2-0.8c-0.2-0.7-0.8-2.4-1.2-2.9
				c-0.2-0.2-0.3-0.4-0.7-0.3C24.3,21.7,23.8,22,23.8,22.7L23.8,22.7z"/>
			<path class="st2" d="M16.4,22.1c0,1.4,0.2,2.6,0.4,3.9c0.1,0.4,0.1,0.8,0.2,1.2c0,0.3,0.3,1.9,0,2.2c-0.9,0.8-0.7-2.9-0.7-3.1
				c0-1.3-0.8-3.3-2-1.3c-1.1,1.8-0.6,4.1-1.5,4.3c-0.3-0.2-0.4-0.5-0.5-0.9c-0.1-0.5-0.4-3.5-1-3.5c-0.3,0-0.2,0.6-0.2,0.8
				C11,27,11,29.1,11.4,30.3c0.1,0.3,0.3,0.6,0.5,0.9c0.8,0.8,2.1,0.7,2.3-1.6c0.1-1.2-0.1-1.8,0.4-2.6c0.2-0.3,0.4-0.1,0.4,0.2
				c0,0.7,0,2.5,0,3.3c0,0.9,0.3,1.4,1,1.8c0.5,0.2,1.1-0.1,1.4,0.5c0.2,0.2,0.1,0.5,0.1,0.8l0.1,1.8c0,1.2,0.2,2.4,0.2,3.6
				c1.3,0,1.4-2.2,1.5-3.1c0-0.3,0.1-0.7,0-1.1c0-0.3-0.1-0.8-0.1-1.1c-0.1-1.1-0.7-3.2,0.9-2.8c0.5,0.1,0.7,0.6,1.3,0.7
				c0.6,0.1,1.4-0.3,1.9-0.6c0.4-0.3,0.9-0.8,0.9-1.5c0-1.1-0.3-2-0.6-3c-0.1-0.2-0.1-0.3-0.1-0.5c-0.1-0.2-0.1-0.3-0.2-0.5
				c0.1,0.1,0.2,0.2,0.4,0.2c1,0.1-0.6-2-0.8-2.2c-0.1-0.1-0.1-0.1-0.2-0.1c-0.8-0.6-2.3,0.5-0.7,3.3c0.4,0.7,0.7,1,0.8,2
				c0,0.2,0,0.2,0,0.4c-0.6,0.1-0.6,0.2-1.5-0.6c-0.6-0.6-0.8-0.5-0.7-1.1c0.1-0.8,0.2-1.3-0.1-2c-0.4-1.1,0-0.4-0.7-1.5
				c-0.9-1.4-1.3,0.5-1.3,1.2c0,1.2,0.3,2.3,0.9,3.3c-0.1,0.1-0.3,0.6-0.6,0.1c-0.1-0.1-0.1-0.2-0.2-0.4c-0.1-0.3-0.2-0.6-0.2-1
				c-0.2-1.3-0.1-3.9-0.7-5C17,21,16.4,21.8,16.4,22.1L16.4,22.1z"/>
			<path class="st2" d="M52.4,25.5L52.4,25.5C52.4,25.6,52.4,25.6,52.4,25.5L52.4,25.5z M52.1,24.2c0,0.4,0.2,0.8,0.2,1.3
				c-0.1-0.1-0.5-0.6-0.6-0.7C51.4,24.4,51.4,24.3,52.1,24.2L52.1,24.2z M48.3,21.9c0,1.4,0.5,1.7,1.3,2.7l1.1,1.5
				c0.1,0.2,2.4,3.4,2.5,3.6c0.1,0.3,0.4,3.7,0.4,4.2c0,0.3,0.1,0.3,0.1,0.6l0.1,2c0.1,0.4,0,4,0,4.5l-0.1,2.1
				c0,0.1-0.1,0.2,0.1,0.2c2.7-0.3,1.6-6.8,1.5-8.2c0-0.3-0.1-0.4-0.1-0.7l-0.1-1.4c0.1,0.1,0.4,0.7,0.6,0.9l2.3,4.1
				c0.3,0.5,1.1,2,1.2,2.4c0.3-0.1,0.3-0.3,0.3-0.6c0.2-0.9,0.1-2.3-0.3-3c-0.5-1-1-2-1.6-3c-0.2-0.3-0.3-0.5-0.4-0.7
				c-0.2-0.3-0.3-0.5-0.4-0.7c-0.3-0.5-0.6-1-0.9-1.4c-0.3-0.5-0.6-0.9-0.9-1.4c-0.3-0.4-0.3-1.4-0.3-2c0-0.5-0.1-1-0.2-1.5
				c0-0.3,0-0.2,0-0.5c0.3,0,0.2,0.2,0.5,0.2c0-1.5-1.3-3.1-2.1-4.2c-0.2-0.2-0.2-0.3-0.4-0.5c-0.7,0.5-0.7,1.3-0.7,2.1
				c-0.1-0.1-0.2-0.2-0.3-0.4c-0.2-0.3-1.1-1.1-1.4-1.3c-0.2-0.1-0.2-0.2-0.4-0.3C48.8,20.6,48.3,20.7,48.3,21.9L48.3,21.9z"/>
			<path class="st2" d="M42.2,22.5c0,1.6,1.3,3.2,0.3,4.8c-0.6,0.9-1.8,1.3-2.4,0.2c-0.7-1.2,0.1-3-0.3-4.4c-0.2-0.7-0.9-0.9-1.6,0
				c-0.9,1.1-1.4,2.5-1.8,3.9c-0.1,0.5-0.2,0.6-0.5,0.9c-0.4-0.2-0.6-0.5-0.7-0.9c-0.2-0.6-0.2-3.6-1-3.8c-1.4,1.3-0.1,5.1,0.7,6.2
				c0.3,0.4,0.6,0.5,1,0.5c0.4,0,0.6,0.1,1-0.5c0.4-0.6,0.7-1.6,0.8-2.3c0-0.2,0.1-0.5,0.2-0.6c0.1-0.2,0.2-0.3,0.4-0.4
				c0.2,0.2,0.1,0.3,0.1,0.7c0,0.8,0,1.5,0.2,2.3c0.1,0.3,0.4,0.8,0.6,1c0.7,0.6,1.6,0.7,2.4,0.2c0.5-0.3,1.1-1.2,1.6-1.5
				c0.7-0.4,1.1,0.4,1.1,0.6c0.5,0.9,1.6,1,2.5,0.6c1-0.4,0.7-2.1,2-1.8c0,0.2-0.4,0.7,0,1c0.5,0.3,1.1-0.4,1.3-0.8
				c0.2-0.3,0.7-1,0.6-1.3c-0.3-0.8-0.4-0.1-0.8-0.1c-0.7,0-1,0.5-1.7-0.1c-0.4-0.4-0.4-1.5-0.6-2c-0.5-1.6,0-0.6,0.6-1.3
				c0.4-0.5-0.5-1.8-1-2.3c-0.6-0.6-1.5-0.3-1.8,0.3c-0.4,0.7-0.3,1.8,0.1,2.4c0.2,0.3,0.3,0.5,0.4,0.8c0.3,0.7,1,2.1,0.4,2.7
				c-1.7,1.6-2.1-1.7-2.1-2.7c0-0.3,0-0.3-0.1-0.6c0-1.2,0-2.2-0.5-3.2c-0.2-0.3-0.2-0.6-0.5-0.8C42.8,20.8,42.2,22,42.2,22.5
				L42.2,22.5z"/>
			<path class="st2" d="M78.6,23.2c0,1.1,0.3,2.3,0.4,3.4l0.6,4.8c0.1,0.5,0.1,1.1,0.2,1.7c0.1,0.8,0.4,5.1,0.4,5.8
				c0,0.3,0,0.6,0,0.9c0.1,0.6,0,1.1-0.1,1.6c-0.2,0.7-0.2,0.6-0.7,1.2c-1.5,1.9-1.7,1.3-3.1,2.3c-1.2,0.8-1,1.6,0.2,1.4
				c0.5-0.1,0.9-0.1,1.4-0.2c4.7-0.9,4-6.3,4-9.9c0-0.5,0-0.9,0-1l-0.1-1.5c-0.2-3-0.2-4.1-0.8-7c-0.4-2-0.2-1.5,0.6-1.7
				c0.3-1.3-1.8-2.6-2.1-3.8c-0.3,0-0.3,0.1-0.4,0.3c-0.1,0.2-0.2,0.3-0.2,0.5C78.7,22.3,78.6,22.8,78.6,23.2L78.6,23.2z"/>
			<path class="st2" d="M58.6,24c0,0.7,0.4,3.1,0.5,4l0.5,4.9c0,0.4,0,0.7,0.1,1c0,0.2,0.1,0.7,0.1,0.9c0,0.8,0.2,3.3,0.3,4
				c0.2,1.6,0.1,1.9-0.8,2.7c-0.2,0.2-0.4,0.4-0.7,0.6c-0.1,0.1-0.2,0.2-0.3,0.3c-0.9,0.7-2.5,2-3.6,2.3c0,0.5,0.5,0.9,0.9,1.1
				c0.5,0.3,1,0.2,1.6,0c1.2-0.4,2.1-1.2,2.8-2.2c0.6-0.9,1.4-2.2,1.6-3.3l0.1-2c0-3.6-0.3-7.3-0.9-10.8c-0.1-0.4-0.4-1.4-0.2-1.9
				c0.1-0.3,0.3-0.1,0.6-0.3c0.4-0.3-0.1-1.1-0.3-1.7c-0.2-0.4-0.4-0.8-0.6-1.2c-0.2-0.3-0.5-1-0.7-1.1c-0.2,0.2-0.5,0.8-0.6,1.1
				C58.8,22.9,58.6,23.5,58.6,24L58.6,24z"/>
			<path class="st2" d="M63.9,40.6v1.8c0.5,0,0.9-0.9,1.1-1.3c0.8-2.1,0.3-4.6,0-6.8c-0.3-2.5-0.6-4.9-1-7.4c-0.1-0.7,0-0.9,0.2-1.3
				c0.3-0.5,1.1,0.4,0.1-1.2c-0.4-0.7-1.5-2.4-1.7-3c-1.2,0-0.9,3.8-0.8,4.5c0.6,2.9,1.3,6.8,1.7,9.6C63.7,37,63.9,38.8,63.9,40.6
				L63.9,40.6z"/>
			<path class="st2" d="M31.7,22.8c0-1,0.6,0.1,0.7,0.1C32.6,23,31.7,23.9,31.7,22.8L31.7,22.8z M30.8,22.6c0,1,0.7,0.7,0.9,1.4
				c-0.2,0.4-0.7,0.7-1,1l-1.1,0.9c-0.6,0.5-1.4,1-2,1.6c-0.1,0.1-0.2,0.1-0.2,0.3c0.7,0,1.8,0.3,2.5-0.2l0.5-0.5
				c0.3-0.3,0.7-0.7,1-1l0.5-0.5c0.2-0.2,1.3-1.4,1.4-1.6c-0.2-0.1-0.4-0.3-0.6-0.5c0.1-0.3,0.2-0.3,0.4-0.5c1.1-1.2-1-2.5-1.9-1.4
				C31,21.9,30.8,22.4,30.8,22.6L30.8,22.6z"/>
			<path class="st2" d="M67.9,28.3c0,0.5,0.2,0.3,0.1,0.8c-1,0.1-0.4-0.7-1.1-0.7c-0.9,0-1.1,1.1-0.6,1.8c0.3,0.4,0.7,0.8,1.1,1.1
				l0.7,0.5c0.1,0.1,0.6,0.4,0.8,0.3c0.1-0.1,0.1-1.2,0.1-1.5c0-0.3,0-0.3,0.1-0.5c0.1-1.1,0.2-0.8,0.9-0.8
				C69.8,26.7,67.9,27.3,67.9,28.3L67.9,28.3z"/>
			<path class="st2" d="M11.4,37c0.7-0.4,1.5-0.7,2.2-1.1c0.3-0.1,0.5-0.3,0.7-0.4c0.5-0.2,0.9-0.5,1.5-0.7c0.5-0.2,1-0.5,1.5-0.7
				C16.1,31.7,11.4,34.9,11.4,37L11.4,37z"/>
			<path class="st2" d="M10.6,43.2c0,0.2,0,0.4,0,0.5c0.1,3.5,3.6,1.2,2.4-0.5c0,0-0.1-0.1-0.1-0.1c-0.7-0.6-0.5,1.3-1.2,0.1
				c-0.3-0.5,0-1.9,0-2.5c0-0.3,0.1-0.7,0.1-1.1h-0.2c0,0.2-0.1,0.2-0.2,0.4C11,40.8,10.6,42.2,10.6,43.2L10.6,43.2z"/>
			<path class="st2" d="M66.8,35.4c0,0.4,0,0.5,0.2,0.8c0.5-0.1,2-1.1,2.3-1.4c0.8-0.6,2.4-1.5,1.5-2.7c-0.2,0-2,1.4-2.1,1.5
				l-1.1,0.8c-0.2,0.1-0.3,0.2-0.5,0.4C66.9,34.9,66.8,35,66.8,35.4L66.8,35.4z"/>
			<path class="st2" d="M48.6,43c0,0.2,0,0.3,0.1,0.4l0.1,0.1c0.2,0,0.7-0.4,0.8,0.1c0.4,1.3,0.4,1.2,1.8,0.6
				c0.5-0.2,1.2-0.4,1.4-0.4c0.2-1-0.9-0.8-1.5-0.6c-1.4,0.5-0.9,0-0.9-1.2C50,41.9,48.6,42.2,48.6,43L48.6,43z"/>
			<path class="st2" d="M73.6,43.3c0,0.7,0.7,0.4,0.5,1.3c0,0.2-1.6,1.5-0.1,1.2c0.3-0.1,0.6-0.2,0.8-0.3c0.8-0.4,1.1-0.6,1-1.2
				c0-0.1-0.6,0.1-0.7,0c-0.2-0.4,0.2-0.6,0.2-1C75.4,42.7,73.6,42.6,73.6,43.3L73.6,43.3z"/>
			<path class="st2" d="M70.2,37.8c0,1.5,0.6,1.8,0.9,0.2c0.1-0.7,0.1-2.3-0.4-2.8C68.8,33.5,70.2,37.3,70.2,37.8L70.2,37.8z"/>
			<path class="st2" d="M44.1,31.5v0.3c-0.3,0-0.7-1.1-0.9-0.4c-0.1,0.3,0.1,0.3-0.2,0.3c0,0,0,0.1-0.1,0c-0.1-0.1-0.1-0.1-0.1-0.2
				c-0.2-0.9-1.2,0.5-0.4,1.3c0.5,0.5,2,0.5,2.4-0.2C45.4,31.8,44.1,30.5,44.1,31.5L44.1,31.5z"/>
			<path class="st2" d="M57.5,27.5v0.3c-0.3,0-0.3,0-0.3-0.3c-0.1-0.6-0.6-0.4-0.6,0.2c-0.5,0-0.4-0.9-0.9-0.4
				c-0.4,0.4-0.1,1.2,0.2,1.6c0.6,0.5,1.8,0.4,2.2-0.3C58.8,27.6,57.5,26.6,57.5,27.5L57.5,27.5z"/>
			<path class="st2" d="M19.2,22c0,2.8,3.9,0.8,2.7-0.6c-0.2-0.2-0.5-0.2-0.6,0.2c-0.1,0.2,0,0.2-0.1,0.5c-0.3,0-0.3,0-0.3-0.3
				c-0.1-0.5-0.5-0.6-0.6,0.2c-0.7,0-0.1-0.5-0.6-0.6C19.4,21.3,19.2,21.7,19.2,22L19.2,22z"/>
			<path class="st2" d="M56.7,24.4c0,0.9-0.2,1,0,1.3c0.2,0,0.3-0.1,0.4-0.3c0.1-0.1,0.2-0.3,0.2-0.5c0.3-0.8,0.4-1.8-0.1-2.5
				c-0.3-0.4-1.5-1.4-1.6-0.3C55.5,22.8,56.7,23.6,56.7,24.4L56.7,24.4z"/>
			<path class="st2" d="M76.5,24.1c0,0.6,0.1,0.6,0.4,1.1c0.7,1.2,0.6,0.8,0.6,1.9c0,0.3-0.1,0.3-0.1,0.6c0,0.5,0.2,0.4,0.3,0.4
				c0.1-0.2,0.2-0.3,0.4-0.9c0.3-1,0.3-1.5-0.1-2.5c-0.1-0.2-0.2-0.4-0.3-0.6C77.2,23.2,76.5,23.7,76.5,24.1L76.5,24.1z"/>
			<path class="st2" d="M30.5,28.8c0,1.4,1.4,1.5,2,0.8c0.1-0.1,0.2-0.3,0.3-0.5c0.2-0.2,0.2-0.4,0.1-0.6c-1.1-0.2-0.6,1.1-1.2-0.2
				c-0.3-0.5,0.6-0.7-0.1-1C30.9,27.1,30.5,28.4,30.5,28.8L30.5,28.8z"/>
			<path class="st2" d="M13.5,24.6c0.4,0,0.4-0.3,0.6-0.7c0.2-0.7,0.3-1.4,0-2.1c-0.2-0.5-1-0.9-1.4-0.4c-0.4,0.5,0.8,1.4,0.8,1.9
				C13.5,23.8,13.4,24.2,13.5,24.6L13.5,24.6z"/>
			<path class="st2" d="M40.3,23.6c0,0.7,0.7,0.5,0.9-0.1c1.2-3.1-0.3-3.4-0.7-1.9C40.4,22.2,40.3,22.9,40.3,23.6L40.3,23.6z"/>
			<path class="st2" d="M29.9,38.7c0,0.8-0.2,0.9,0.1,1.2c0.8-0.1,0.7-1.6,0.6-2.1c-0.5-1.7-2-0.9-1.4-0.2
				C29.5,37.9,29.9,38.2,29.9,38.7L29.9,38.7z"/>
			<path class="st2" d="M35.3,22.5c-0.1,0.7,0.6,1.2,1.2,0.7c0.2-0.2,0.3-0.4,0.3-0.7c-0.2-0.1-0.4-0.1-0.6,0
				c-0.4-0.9,0.5-1.2,0.6-1.6c0.1-0.5-0.5-0.6-1.1,0.3C35.6,21.6,35.3,22,35.3,22.5L35.3,22.5z"/>
		</g>
	</g>
</g>
</svg>
