<?xml version="1.0" encoding="utf-8"?>
<!-- Generator: Adobe Illustrator 25.4.0, SVG Export Plug-In . SVG Version: 6.00 Build 0)  -->
<svg version="1.1" id="Layer_2" xmlns="http://www.w3.org/2000/svg" xmlns:xlink="http://www.w3.org/1999/xlink" x="0px" y="0px"
	 viewBox="0 0 92.4 93.4" style="enable-background:new 0 0 92.4 93.4;" xml:space="preserve">
<style type="text/css">
	.st0{clip-path:url(#SVGID_00000036953008415263291180000012805857685430214028_);}
	.st1{fill-rule:evenodd;clip-rule:evenodd;fill:#EDEDED;}
	.st2{fill-rule:evenodd;clip-rule:evenodd;fill:#F20000;}
	.st3{fill-rule:evenodd;clip-rule:evenodd;fill:#0032A0;}
</style>
<g>
	<defs>
		<path id="SVGID_1_" d="M46.2,92.9C20.7,92.9,0,72.2,0,46.7C0,21.2,20.7,0.5,46.2,0.5c25.5,0,46.2,20.7,46.2,46.2
			C92.4,72.2,71.7,92.9,46.2,92.9L46.2,92.9z"/>
	</defs>
	<clipPath id="SVGID_00000091000866086967680210000006288857539967173271_">
		<use xlink:href="#SVGID_1_"  style="overflow:visible;"/>
	</clipPath>
	<g style="clip-path:url(#SVGID_00000091000866086967680210000006288857539967173271_);">
		<rect x="-23.9" class="st1" width="140.2" height="93.4"/>
		<polygon class="st2" points="116.3,38.9 116.3,54.6 53.1,54.6 53.1,93.4 39.4,93.4 39.4,54.6 -23.9,54.6 -23.9,38.9 39.4,38.9 
			39.4,0 53.1,0 53.1,38.9 		"/>
		<path class="st3" d="M-10.9,0h46.7v30.8L-10.9,0L-10.9,0z M56.6,0h46.7L56.6,30.8V0L56.6,0z M116.3,9.6l-38,25.1h38V9.6L116.3,9.6
			z M78.3,58.8h38v25.1L78.3,58.8L78.3,58.8z M103.4,93.4L56.6,62.6v30.8H103.4L103.4,93.4z M-23.9,58.8h38l-38,25.1V58.8
			L-23.9,58.8z M35.8,62.6l-46.7,30.8h46.7V62.6L35.8,62.6z M14.1,34.6l-38-25.1v25.1H14.1z"/>
		<g>
			<polygon class="st2" points="19.2,34.6 -23.9,6.2 -23.9,0.5 28,34.6 			"/>
			<polygon class="st2" points="35.8,59.5 -15.7,93.4 -23.9,93.4 -23.9,93.1 28.1,58.8 35.8,58.8 			"/>
			<polygon class="st2" points="116.3,0.7 64.8,34.6 56.6,34.6 56.6,34.2 108.5,0 116.3,0 			"/>
			<polygon class="st2" points="116.3,92.7 64.8,58.8 73.6,58.8 116.3,87 			"/>
		</g>
	</g>
</g>
</svg>
