<?xml version="1.0" encoding="utf-8"?>
<!-- Generator: Adobe Illustrator 25.4.0, SVG Export Plug-In . SVG Version: 6.00 Build 0)  -->
<svg version="1.1" id="Layer_2" xmlns="http://www.w3.org/2000/svg" xmlns:xlink="http://www.w3.org/1999/xlink" x="0px" y="0px"
	 viewBox="0 0 92.4 93.9" style="enable-background:new 0 0 92.4 93.9;" xml:space="preserve">
<style type="text/css">
	.st0{clip-path:url(#SVGID_00000174603618959092676780000009608460316672576165_);}
	.st1{fill-rule:evenodd;clip-rule:evenodd;fill:#002F8E;}
	.st2{fill-rule:evenodd;clip-rule:evenodd;fill:#CC1515;}
	.st3{fill:#CC1515;}
	.st4{fill:#EDEDED;}
</style>
<g>
	<defs>
		<path id="SVGID_116_" d="M46.2,93.1C20.7,93.1,0,72.5,0,46.9C0,21.4,20.7,0.7,46.2,0.7c25.5,0,46.2,20.7,46.2,46.2
			C92.4,72.5,71.7,93.1,46.2,93.1L46.2,93.1z"/>
	</defs>
	<clipPath id="SVGID_00000080195779575001170300000017573268923742179766_">
		<use xlink:href="#SVGID_116_"  style="overflow:visible;"/>
	</clipPath>
	<g style="clip-path:url(#SVGID_00000080195779575001170300000017573268923742179766_);">
		<g>
			<polygon class="st1" points="5,0 -16.3,0 5,15.2 			"/>
			<polygon class="st1" points="-24.2,16.8 -21.7,16.8 -8.8,16.8 -24.2,5.6 -24.2,5.6 -24.2,16.8 			"/>
			<polygon class="st1" points="38.4,0 17,0 17,15.2 			"/>
			<polygon class="st1" points="-24.2,41.6 -24.2,41.6 -8.5,30 -21.7,30 -24.2,30 -24.2,30 -24.2,41.6 			"/>
			<path class="st1" d="M46.2,0v5.6L30.8,16.8h15.4l0,6.6l0,4.1h0l0,2.5H30.6l15.6,11.6v1.8v3.5v0.1h-7.9L17,31.6l0,15.3h-2.1H7.1H5
				l0-15.3l-21.3,15.3H-19h-4.7h-0.6h0v46.9h140.8V0H46.2z M81.2,23.6l1.3-3.9l1.3,3.9l4.1,0L84.5,26l1.3,3.9l-3.3-2.4l-3.3,2.4
				l1.3-3.9l-3.3-2.4L81.2,23.6z M68.8,46.8l-3.2-2.3l-3.2,2.3l1.2-3.8l-3.2-2.3l4,0l1.2-3.8l1.2,3.8l4,0L67.5,43L68.8,46.8z
				 M86.2,74.1l-4.4-3.2l-4.4,3.2l1.7-5.1l-4.4-3.2l5.4,0l1.7-5.1l1.7,5.1l5.4,0L84.6,69L86.2,74.1z M99.3,41.6l-2.7-1.9L94,41.6
				l1-3.1l-2.7-1.9l3.3,0l1-3.1l1,3.1l3.3,0l-2.7,1.9L99.3,41.6z"/>
		</g>
		<g>
			<polygon class="st2" points="-24.2,19.3 -24.2,23.4 -24.2,27.5 7.1,27.5 7.1,46.9 14.9,46.9 14.9,27.5 46.2,27.5 46.2,23.4 
				46.2,19.3 14.9,19.3 14.9,0 7.1,0 7.1,19.3 			"/>
			<polygon class="st3" points="-0.7,30.1 -24.2,46.9 -19,46.9 4.5,30.1 			"/>
			<polygon class="st3" points="22.7,16.7 46.2,0 41,0 17.5,16.7 			"/>
			<polygon class="st3" points="-5.8,16.7 -0.7,16.7 -24.2,0 -24.2,3.5 			"/>
			<polygon class="st3" points="22.7,30 46.2,46.8 46.2,43.3 27.9,29.9 			"/>
		</g>
		<g>
			<polygon class="st4" points="46.2,19.3 46.2,23.4 46.2,16.8 30.8,16.8 46.2,5.6 46.2,0 22.7,16.7 17.5,16.7 41,0 38.4,0 17,15.2 
				17,0 14.9,0 14.9,19.3 			"/>
			<polygon class="st4" points="-24.2,27.5 -24.2,23.4 -24.2,30 -8.5,30 -24.2,41.6 -24.2,46.9 -0.7,30.1 4.5,30.1 -19,46.9 
				-16.3,46.9 5,31.6 5,46.9 7.1,46.9 7.1,27.5 			"/>
			<polygon class="st4" points="14.9,46.9 17,46.9 17,31.6 38.3,46.9 46.2,46.9 46.2,46.8 22.7,30 27.9,29.9 46.2,43.3 46.2,41.6 
				30.6,30 46.2,30 46.2,27.5 14.9,27.5 			"/>
			<polygon class="st4" points="-5.8,16.7 -24.2,3.5 -24.2,5.6 -8.8,16.8 -24.2,16.8 -24.2,19.3 7.1,19.3 7.1,0 5,0 5,15.2 -16.3,0 
				-24.2,0 -0.7,16.7 			"/>
		</g>
		<g>
			<path class="st4" d="M97.6,36.5l-1-3.1l-1,3.1l-3.3,0l2.7,1.9l-1,3.1l2.7-1.9l2.7,1.9l-1-3.1l2.7-1.9L97.6,36.5z M98.7,40.7
				l-2-1.5l-2,1.5l0.8-2.4l-2-1.5l2.5,0l0.8-2.4l0.8,2.4l2.5,0l-2,1.5L98.7,40.7z"/>
			<path class="st4" d="M97.4,36.8l-0.8-2.4l-0.8,2.4l-2.5,0l2,1.5l-0.8,2.4l2-1.5l2,1.5l-0.8-2.4l2-1.5L97.4,36.8z M98,39.8l-1.4-1
				l-1.4,1l0.5-1.6l-1.4-1l1.7,0l0.5-1.6l0.5,1.6l1.7,0l-1.4,1L98,39.8z"/>
			<path class="st4" d="M66.8,40.7l-1.2-3.8l-1.2,3.8l-4,0l3.2,2.3l-1.2,3.8l3.2-2.3l3.2,2.3L67.5,43l3.2-2.3L66.8,40.7z M68.1,45.8
				L65.6,44L63,45.8l1-3L61.4,41l3.2,0l1-3l1,3l3.2,0l-2.6,1.9L68.1,45.8z"/>
			<path class="st4" d="M66.5,41l-1-3l-1,3l-3.2,0l2.6,1.9l-1,3l2.5-1.9l2.5,1.9l-1-3l2.6-1.9L66.5,41z M67.5,44.9l-1.9-1.4
				l-1.9,1.4l0.7-2.2l-1.9-1.4l2.3,0l0.7-2.2l0.7,2.2l2.3,0l-1.9,1.4L67.5,44.9z"/>
			<path class="st4" d="M79.2,29.9l3.3-2.4l3.3,2.4L84.5,26l3.3-2.4l-4.1,0l-1.3-3.9l-1.3,3.9l-4.1,0l3.3,2.4L79.2,29.9z M78.2,24
				l3.3,0l1-3.1l1,3.1l3.3,0l-2.7,1.9l1,3.1l-2.6-1.9L79.8,29l1-3.1L78.2,24z"/>
			<path class="st4" d="M79.8,29l2.6-1.9l2.6,1.9l-1-3.1l2.7-1.9l-3.3,0l-1-3.1l-1,3.1l-3.3,0l2.7,1.9L79.8,29z M79.2,24.3l2.5,0
				l0.8-2.3l0.8,2.3l2.5,0l-2,1.4l0.8,2.3l-2-1.5l-2,1.5l0.8-2.3L79.2,24.3z"/>
			<path class="st4" d="M83.5,65.8l-1.7-5.1l-1.7,5.1l-5.4,0l4.4,3.2l-1.7,5.1l4.4-3.2l4.4,3.2L84.6,69l4.4-3.2L83.5,65.8z
				 M85.6,73.2l-3.7-2.7l-3.7,2.7l1.4-4.4l-3.7-2.7l4.6,0l1.4-4.4l1.4,4.4l4.6,0l-3.7,2.7L85.6,73.2z"/>
			<path class="st4" d="M83.3,66.2l-1.4-4.4l-1.4,4.4l-4.6,0l3.7,2.7l-1.4,4.4l3.7-2.7l3.7,2.7l-1.4-4.4l3.7-2.7L83.3,66.2z
				 M84.9,72.3l-3.1-2.2l-3.1,2.2l1.2-3.6l-3.1-2.2l3.8,0l1.2-3.6l1.2,3.6l3.8,0l-3.1,2.2L84.9,72.3z"/>
			<polygon class="st2" points="97.2,37.2 96.6,35.6 96.1,37.2 94.4,37.2 95.8,38.2 95.3,39.8 96.6,38.8 98,39.8 97.5,38.2 
				98.8,37.2 			"/>
			<polygon class="st2" points="66.3,41.3 65.6,39.1 64.8,41.3 62.5,41.3 64.4,42.7 63.7,44.9 65.6,43.6 67.5,44.9 66.7,42.7 
				68.6,41.3 			"/>
			<polygon class="st2" points="80.5,28.1 82.5,26.7 84.5,28.1 83.7,25.8 85.7,24.3 83.2,24.3 82.5,22 81.7,24.3 79.2,24.3 
				81.2,25.8 			"/>
			<polygon class="st2" points="83,66.5 81.9,62.9 80.7,66.5 76.9,66.5 80,68.7 78.8,72.3 81.9,70.1 84.9,72.3 83.8,68.7 86.8,66.5 
							"/>
		</g>
	</g>
</g>
</svg>
