<?xml version="1.0" encoding="utf-8"?>
<!-- Generator: Adobe Illustrator 25.4.0, SVG Export Plug-In . SVG Version: 6.00 Build 0)  -->
<svg version="1.1" id="Layer_2" xmlns="http://www.w3.org/2000/svg" xmlns:xlink="http://www.w3.org/1999/xlink" x="0px" y="0px"
	 viewBox="0 0 92.4 94" style="enable-background:new 0 0 92.4 94;" xml:space="preserve">
<style type="text/css">
	.st0{clip-path:url(#SVGID_00000062888160981407144570000008440285743900914058_);}
	.st1{fill-rule:evenodd;clip-rule:evenodd;fill:#EDEDED;}
	.st2{fill-rule:evenodd;clip-rule:evenodd;fill:#006613;}
</style>
<g>
	<defs>
		<path id="SVGID_1_" d="M46.2,93.2C20.7,93.2,0,72.5,0,47C0,21.5,20.7,0.8,46.2,0.8c25.5,0,46.2,20.7,46.2,46.2
			C92.4,72.5,71.7,93.2,46.2,93.2L46.2,93.2z"/>
	</defs>
	<clipPath id="SVGID_00000095339308847599128250000000851552613950703010_">
		<use xlink:href="#SVGID_1_"  style="overflow:visible;"/>
	</clipPath>
	<g style="clip-path:url(#SVGID_00000095339308847599128250000000851552613950703010_);">
		<polygon class="st1" points="-24.3,94 11,94 11,0 -24.3,0 -24.3,94 		"/>
		<polygon class="st2" points="11,94 116.7,94 116.7,0 11,0 11,94 		"/>
		<polygon class="st1" points="73.6,24.5 78.9,30.4 86.1,27.2 82.1,34.1 87.4,40 79.7,38.3 75.7,45.1 74.9,37.2 67.1,35.5 
			74.4,32.4 73.6,24.5 		"/>
		<path class="st1" d="M55.5,21.1c-11,3.5-19,13.8-19,26c0,15.1,12.2,27.3,27.3,27.3c11,0,20.5-6.5,24.8-16
			c-0.4,0.4-0.8,0.8-1.2,1.2c-10.3,9.2-26.1,8.2-35.3-2.1c-9.2-10.3-8.2-26.1,2.1-35.3C54.6,21.8,55,21.4,55.5,21.1L55.5,21.1z"/>
	</g>
</g>
</svg>
