<?xml version="1.0" encoding="utf-8"?>
<!-- Generator: Adobe Illustrator 25.4.0, SVG Export Plug-In . SVG Version: 6.00 Build 0)  -->
<svg version="1.1" id="Layer_2" xmlns="http://www.w3.org/2000/svg" xmlns:xlink="http://www.w3.org/1999/xlink" x="0px" y="0px"
	 viewBox="0 0 92.4 92.4" style="enable-background:new 0 0 92.4 92.4;" xml:space="preserve">
<style type="text/css">
	.st0{clip-path:url(#SVGID_00000068651420762793798620000001307676999005737914_);}
	.st1{fill:#EDEDED;}
	.st2{fill:#EF0315;}
	.st3{fill:#004CBA;}
</style>
<g>
	<defs>
		<path id="SVGID_1_" d="M46.2,92.4C20.7,92.4,0,71.7,0,46.2C0,20.7,20.7,0,46.2,0c25.5,0,46.2,20.7,46.2,46.2
			C92.4,71.7,71.7,92.4,46.2,92.4L46.2,92.4z"/>
	</defs>
	<clipPath id="SVGID_00000147207423250219026230000010958997297198572698_">
		<use xlink:href="#SVGID_1_"  style="overflow:visible;"/>
	</clipPath>
	<g style="clip-path:url(#SVGID_00000147207423250219026230000010958997297198572698_);">
		<polygon class="st1" points="-23.1,0 115.5,0 115.5,92.4 -23.1,92.4 -23.1,0 		"/>
		<path class="st2" d="M-23.1,85.3h138.6v7.1H-23.1V85.3L-23.1,85.3z M-23.1,0h138.6v7.1H-23.1V0L-23.1,0z M-23.1,14.2h138.6v7.1
			H-23.1V14.2L-23.1,14.2z M-23.1,28.4h138.6v7.1H-23.1V28.4L-23.1,28.4z M-23.1,42.7h138.6v7.1H-23.1V42.7L-23.1,42.7z M-23.1,56.9
			h138.6V64H-23.1V56.9L-23.1,56.9z M-23.1,71.1h138.6v7.1H-23.1V71.1L-23.1,71.1z"/>
		<polygon class="st3" points="-23.1,0 47.1,0 47.1,49.8 -23.1,49.8 -23.1,0 		"/>
		<path class="st1" d="M41.8,14l-0.6-2l-0.6,2h-2.1l1.7,1.2l-0.6,2l1.7-1.2l1.7,1.2l-0.6-2l1.7-1.2H41.8L41.8,14z M-16.1,5.3
			l1.7-1.2h-2.1l-0.6-2l-0.6,2h-2.1l1.7,1.2l-0.6,2l1.7-1.2l1.7,1.2L-16.1,5.3L-16.1,5.3z M-4.4,5.3L-2.7,4h-2.1l-0.6-2l-0.6,2h-2.1
			l1.7,1.2l-0.6,2L-5.5,6l1.7,1.2L-4.4,5.3L-4.4,5.3z M7.2,5.3L8.9,4H6.8l-0.6-2L5.6,4H3.5l1.7,1.2l-0.6,2L6.2,6l1.7,1.2L7.2,5.3
			L7.2,5.3z M18.9,5.3L20.5,4h-2.1l-0.6-2l-0.6,2h-2.1l1.7,1.2l-0.6,2L17.8,6l1.7,1.2L18.9,5.3L18.9,5.3z M-9.9,40l1.7-1.2h-2.1
			l-0.6-2l-0.6,2h-2.1L-12,40l-0.6,2l1.7-1.2l1.7,1.2L-9.9,40L-9.9,40z M-11,39.6L-11,39.6L-11,39.6L-11,39.6L-11,39.6z M-10.2,30.3
			l1.7-1.2h-2.1l-0.6-2l-0.6,2h-2.1l1.7,1.2l-0.6,2l1.7-1.2l1.7,1.2L-10.2,30.3L-10.2,30.3z M-10.1,20.6l1.7-1.2h-2.1l-0.6-2l-0.6,2
			h-2.1l1.7,1.2l-0.6,2l1.7-1.2l1.7,1.2L-10.1,20.6L-10.1,20.6z M30.5,5.3L32.2,4h-2.1l-0.6-2l-0.6,2h-2.1l1.7,1.2l-0.6,2L29.5,6
			l1.7,1.2L30.5,5.3L30.5,5.3z M42.2,5.3L43.8,4h-2.1l-0.6-2l-0.6,2h-2.1l1.7,1.2l-0.6,2L41.1,6l1.7,1.2L42.2,5.3L42.2,5.3z
			 M1.5,20.6l1.7-1.2H1.1l-0.6-2l-0.6,2h-2.1l1.7,1.2l-0.6,2l1.7-1.2l1.7,1.2L1.5,20.6L1.5,20.6z M1.5,30.3L3.2,29H1.1l-0.6-2
			l-0.6,2h-2.1l1.7,1.2l-0.6,2L0.4,31l1.7,1.2L1.5,30.3L1.5,30.3z M1.7,40l1.7-1.2H1.3l-0.6-2l-0.6,2H-2l1.7,1.2l-0.6,2l1.7-1.2
			l1.7,1.2L1.7,40L1.7,40z M0.7,39.6L0.7,39.6L0.7,39.6L0.7,39.6L0.7,39.6z M13.4,40l1.7-1.2H13l-0.6-2l-0.6,2H9.6l1.7,1.2l-0.6,2
			l1.7-1.2l1.7,1.2L13.4,40L13.4,40z M13.1,30.3l1.7-1.2h-2.1l-0.6-2l-0.6,2H9.4l1.7,1.2l-0.6,2l1.7-1.2l1.7,1.2L13.1,30.3
			L13.1,30.3z M13.2,20.6l1.7-1.2h-2.1l-0.6-2l-0.6,2H9.4l1.7,1.2l-0.6,2l1.7-1.2l1.7,1.2L13.2,20.6L13.2,20.6z M-10.2,10.2L-8.6,9
			h-2.1l-0.6-2l-0.6,2H-14l1.7,1.2l-0.6,2l1.7-1.2l1.7,1.2L-10.2,10.2L-10.2,10.2z M1.4,10.2L3.1,9H1l-0.6-2l-0.6,2h-2.1l1.7,1.2
			l-0.6,2L0.4,11L2,12.2L1.4,10.2L1.4,10.2z M24.8,20.6l1.7-1.2h-2.1l-0.6-2l-0.6,2h-2.1l1.7,1.2l-0.6,2l1.7-1.2l1.7,1.2L24.8,20.6
			L24.8,20.6z M24.8,30.3l1.7-1.2h-2.1l-0.6-2l-0.6,2H21l1.7,1.2l-0.6,2l1.7-1.2l1.7,1.2L24.8,30.3L24.8,30.3z M25,40l1.7-1.2h-2.1
			l-0.6-2l-0.6,2h-2.1l1.7,1.2l-0.6,2l1.7-1.2l1.7,1.2L25,40L25,40z M36.7,40l1.7-1.2h-2.1l-0.6-2l-0.6,2h-2.1l1.7,1.2l-0.6,2
			l1.7-1.2l1.7,1.2L36.7,40L36.7,40z M35.6,39.6L35.6,39.6L35.6,39.6L35.6,39.6L35.6,39.6z M36.4,30.3l1.7-1.2H36l-0.6-2l-0.6,2
			h-2.1l1.7,1.2l-0.6,2l1.7-1.2l1.7,1.2L36.4,30.3L36.4,30.3z M36.5,20.6l1.7-1.2h-2.1l-0.6-2l-0.6,2h-2.1l1.7,1.2l-0.6,2l1.7-1.2
			l1.7,1.2L36.5,20.6L36.5,20.6z M13,10.2L14.7,9h-2.1l-0.6-2l-0.6,2H9.3l1.7,1.2l-0.6,2L12,11l1.7,1.2L13,10.2L13,10.2z M24.7,10.2
			L26.4,9h-2.1l-0.6-2L23,9H21l1.7,1.2l-0.6,2l1.7-1.2l1.7,1.2L24.7,10.2L24.7,10.2z M36.3,10.2L38,9h-2.1l-0.6-2l-0.6,2h-2.1
			l1.7,1.2l-0.6,2l1.7-1.2l1.7,1.2L36.3,10.2L36.3,10.2z M-15.8,44.9l1.7-1.2h-2.1l-0.6-2l-0.6,2h-2.1l1.7,1.2l-0.6,2l1.7-1.2
			l1.7,1.2L-15.8,44.9L-15.8,44.9z M-16,35.2l1.7-1.2h-2.1l-0.6-2l-0.6,2h-2.1l1.7,1.2l-0.6,2L-17,36l1.7,1.2L-16,35.2L-16,35.2z
			 M-15.9,25.6l1.7-1.2h-2.1l-0.6-2l-0.6,2h-2.1l1.7,1.2l-0.6,2l1.7-1.2l1.7,1.2L-15.9,25.6L-15.9,25.6z M-4.3,25.6l1.7-1.2h-2.1
			l-0.6-2l-0.6,2H-8l1.7,1.2l-0.6,2l1.7-1.2l1.7,1.2L-4.3,25.6L-4.3,25.6z M-4.3,35.2l1.7-1.2h-2.1l-0.6-2L-6,34h-2.1l1.7,1.2
			l-0.6,2l1.7-1.2l1.7,1.2L-4.3,35.2L-4.3,35.2z M-4.1,44.9l1.7-1.2h-2.1l-0.6-2l-0.6,2h-2.1l1.7,1.2l-0.6,2l1.7-1.2l1.7,1.2
			L-4.1,44.9L-4.1,44.9z M7.5,44.9l1.7-1.2H7.1l-0.6-2l-0.6,2H3.8l1.7,1.2l-0.6,2l1.7-1.2l1.7,1.2L7.5,44.9L7.5,44.9z M7.3,35.2
			L9,34H6.9l-0.6-2l-0.6,2H3.6l1.7,1.2l-0.6,2L6.3,36l1.7,1.2L7.3,35.2L7.3,35.2z M7.4,25.6L9,24.4H7l-0.6-2l-0.6,2H3.6l1.7,1.2
			l-0.6,2l1.7-1.2L8,27.6L7.4,25.6L7.4,25.6z M-16.1,15.2l1.7-1.2h-2.1l-0.6-2l-0.6,2h-2.1l1.7,1.2l-0.6,2l1.7-1.2l1.7,1.2
			L-16.1,15.2L-16.1,15.2z M-4.4,15.2l1.7-1.2h-2.1l-0.6-2l-0.6,2h-2.1l1.7,1.2l-0.6,2l1.7-1.2l1.7,1.2L-4.4,15.2L-4.4,15.2z
			 M19,25.6l1.7-1.2h-2.1l-0.6-2l-0.6,2h-2.1l1.7,1.2l-0.6,2l1.7-1.2l1.7,1.2L19,25.6L19,25.6z M19,35.2l1.7-1.2h-2.1l-0.6-2l-0.6,2
			h-2.1l1.7,1.2l-0.6,2l1.7-1.2l1.7,1.2L19,35.2L19,35.2z M19.2,44.9l1.7-1.2h-2.1l-0.6-2l-0.6,2h-2.1l1.7,1.2l-0.6,2l1.7-1.2
			l1.7,1.2L19.2,44.9L19.2,44.9z M30.8,44.9l1.7-1.2h-2.1l-0.6-2l-0.6,2h-2.1l1.7,1.2l-0.6,2l1.7-1.2l1.7,1.2L30.8,44.9L30.8,44.9z
			 M42.5,44.9l1.7-1.2h-2.1l-0.6-2l-0.6,2h-2.1l1.7,1.2l-0.6,2l1.7-1.2l1.7,1.2L42.5,44.9L42.5,44.9z M30.6,35.2l1.7-1.2h-2.1
			l-0.6-2l-0.6,2h-2.1l1.7,1.2l-0.6,2l1.7-1.2l1.7,1.2L30.6,35.2L30.6,35.2z M42.2,35.2l1.7-1.2h-2.1l-0.6-2l-0.6,2h-2.1l1.7,1.2
			l-0.6,2l1.7-1.2l1.7,1.2L42.2,35.2L42.2,35.2z M30.7,25.6l1.7-1.2h-2.1l-0.6-2l-0.6,2h-2.1l1.7,1.2l-0.6,2l1.7-1.2l1.7,1.2
			L30.7,25.6L30.7,25.6z M42.3,25.6l1.7-1.2h-2.1l-0.6-2l-0.6,2h-2.1l1.7,1.2l-0.6,2l1.7-1.2l1.7,1.2L42.3,25.6L42.3,25.6z
			 M7.2,15.2L8.9,14H6.8l-0.6-2l-0.6,2H3.5l1.7,1.2l-0.6,2L6.2,16l1.7,1.2L7.2,15.2L7.2,15.2z M18.9,15.2l1.7-1.2h-2.1l-0.6-2
			l-0.6,2h-2.1l1.7,1.2l-0.6,2l1.7-1.2l1.7,1.2L18.9,15.2L18.9,15.2z M30.5,15.2l1.7-1.2h-2.1l-0.6-2l-0.6,2h-2.1l1.7,1.2l-0.6,2
			l1.7-1.2l1.7,1.2L30.5,15.2L30.5,15.2z"/>
	</g>
</g>
</svg>
